<svg width="43" height="44" viewBox="0 0 43 44" fill="none" xmlns="http://www.w3.org/2000/svg">
<g id="Group">
<path id="Vector" d="M31.7611 21.8308C32.4499 21.8308 33.0083 21.2668 33.0083 20.5709C33.0083 19.8751 32.4499 19.311 31.7611 19.311C31.0723 19.311 30.5139 19.8751 30.5139 20.5709C30.5139 21.2668 31.0723 21.8308 31.7611 21.8308Z" fill="#1A757A"/>
<path id="Vector_2" d="M7.4872 15.3393C8.27608 15.8607 8.83257 16.0439 9.50389 16.1025V16.6234C9.50389 17.0873 9.87621 17.4634 10.3353 17.4634C10.7945 17.4634 11.1668 17.0873 11.1668 16.6234V16.0219C12.5483 15.6678 13.4338 14.4757 13.6295 13.3002C13.8811 11.7879 13.0682 10.4212 11.6066 9.89926C11.4619 9.8476 11.3144 9.79384 11.1668 9.73849V7.02449C11.4208 7.11916 11.553 7.24767 11.5719 7.26707C11.8744 7.61178 12.3958 7.64613 12.7401 7.34308C13.0864 7.03844 13.1226 6.50785 12.821 6.1581C12.5447 5.83767 11.974 5.43609 11.1668 5.2949V4.86435C11.1668 4.40054 10.7945 4.02441 10.3353 4.02441C9.87621 4.02441 9.50389 4.40054 9.50389 4.86435V5.38704C9.45267 5.40073 9.40095 5.41535 9.34882 5.43122C8.3633 5.73108 7.6273 6.58101 7.428 7.64924C7.24517 8.62953 7.5602 9.57798 8.25023 10.1247C8.57591 10.3828 8.97284 10.6193 9.50389 10.8653V14.4124C9.12816 14.359 8.84654 14.2304 8.39756 13.9336C8.01326 13.6796 7.49793 13.7885 7.24658 14.1767C6.99523 14.5648 7.10291 15.0854 7.4872 15.3393ZM11.9895 13.0218C11.9138 13.477 11.6344 13.9556 11.1667 14.2262V11.5282C12.0665 11.9111 12.0441 12.6935 11.9895 13.0218ZM9.2764 8.80297C9.07976 8.64725 8.99571 8.31648 9.06214 7.96043C9.11028 7.70232 9.25013 7.40482 9.5038 7.20819V8.96474C9.42199 8.91175 9.34566 8.85782 9.2764 8.80297Z" fill="#00A3FF"/>
<path id="Vector_3" d="M41.532 18.909L37.1954 18.165C36.6505 17.3091 36.0074 16.5204 35.2747 15.8095C35.6959 13.6812 36.831 11.788 38.5146 10.4273L38.7764 10.2158C39.19 9.88163 39.3495 9.31988 39.1742 8.81491C38.9988 8.30994 38.527 7.97203 37.9973 7.97203H34.6715C31.7287 7.97203 29.0355 9.65283 27.6847 12.2441C27.2369 12.196 26.793 12.1717 26.357 12.1717H20.6897C20.7529 11.7046 20.7863 11.2281 20.7863 10.7438C20.7863 4.95457 16.1239 0.244629 10.3931 0.244629C4.66236 0.244629 0 4.95457 0 10.7438C0 13.3284 0.929812 15.6973 2.4685 17.5286C0.869947 19.7457 0 22.4259 0 25.1907C0 29.2134 1.8533 33.0074 4.98871 35.4692V41.9894C4.98871 42.6852 5.54711 43.2493 6.23588 43.2493H11.2246C11.7614 43.2493 12.238 42.9022 12.4077 42.3878L13.7865 38.2097H25.4581L26.8368 42.3878C27.0065 42.9022 27.4831 43.2493 28.0199 43.2493H33.0086C33.6974 43.2493 34.2558 42.6852 34.2558 41.9894V35.4694C35.9708 34.1238 37.3121 32.3753 38.1753 30.3584L41.7915 28.8782C42.2622 28.6854 42.5703 28.2236 42.5703 27.7105V20.1511C42.5703 19.5367 42.1316 19.0119 41.532 18.909ZM10.3931 2.76443C14.7485 2.76443 18.2919 6.34399 18.2919 10.7438C18.2919 15.1437 14.7485 18.7232 10.3931 18.7232C6.03775 18.7232 2.49435 15.1437 2.49435 10.7438C2.49435 6.34399 6.03775 2.76443 10.3931 2.76443ZM40.0759 26.8617L36.751 28.2227C36.4305 28.3539 36.1784 28.6135 36.0547 28.9398C35.3069 30.9118 34.0067 32.5926 32.2946 33.8001C31.9605 34.0358 31.7614 34.4214 31.7614 34.8332V40.7295H28.9189L27.5402 36.5514C27.3704 36.037 26.8938 35.6899 26.357 35.6899H12.8875C12.3507 35.6899 11.8741 36.037 11.7043 36.5514L10.3256 40.7295H7.48306V34.8332C7.48306 34.4215 7.28393 34.0358 6.94985 33.8001C4.15992 31.8322 2.49435 28.6139 2.49435 25.1907C2.49435 23.0611 3.1344 20.9938 4.3149 19.2549C6.02536 20.505 8.12544 21.243 10.3931 21.243C14.7423 21.243 18.4754 18.5299 20.023 14.6915H26.357C26.9596 14.6915 27.5848 14.75 28.2153 14.8654C28.8107 14.9748 29.3977 14.6359 29.6075 14.0624C30.3887 11.9268 32.4239 10.4918 34.6715 10.4918H34.9856C33.7574 12.1127 32.965 14.0417 32.6977 16.1178C32.6437 16.5381 32.8023 16.9577 33.12 17.2344C34.0153 18.0142 34.7648 18.9255 35.3481 19.9426C35.5338 20.2667 35.8528 20.4905 36.2184 20.5533L40.0759 21.215V26.8617Z" fill="#00A3FF"/>
</g>
</svg>
