<svg width="42" height="43" viewBox="0 0 42 43" fill="none" xmlns="http://www.w3.org/2000/svg">
<g id="box (1) 1" clip-path="url(#clip0_62_249)">
<path id="Vector" fill-rule="evenodd" clip-rule="evenodd" d="M2.69357 12.6895C5.85786 5.16406 13.108 0.251953 21.1493 0.251953C30.3064 0.251953 38.3106 6.59803 40.6068 15.6808C40.777 16.3521 40.3828 17.0374 39.7272 17.2116C39.0713 17.3855 38.4019 16.9823 38.2321 16.3107C36.2156 8.33514 29.1987 2.77215 21.1493 2.77215C14.1212 2.77215 7.79009 7.03239 4.98949 13.575L5.90305 13.1803C6.52693 12.9113 7.24599 13.2108 7.50875 13.8496C7.7715 14.4886 7.47895 15.2245 6.85474 15.4935L3.17358 17.0843C2.54969 17.3533 1.83064 17.0538 1.56788 16.415L0.014411 12.6462C-0.248346 12.0075 0.0442114 11.2713 0.668419 11.0023C1.29231 10.7333 2.01104 11.0328 2.2738 11.6716L2.69357 12.6895ZM24.935 14.0218V18.5537C24.935 19.4441 24.006 20.172 23.0518 19.6222L20.9145 18.5225L18.6727 19.6757C17.8489 20.0989 16.8985 19.4664 16.8991 18.5537L16.894 14.0218H13.7761V28.4701H28.0525V14.0218H24.935ZM22.4734 14.0218H19.3555V16.5161C21.0606 15.6388 20.7575 15.6333 22.4734 16.5161V14.0218ZM12.5457 11.5016C11.866 11.5016 11.3149 12.0659 11.3149 12.7617V29.7302C11.3149 30.426 11.866 30.9903 12.5457 30.9903H29.2836C29.9632 30.9903 30.5144 30.426 30.5144 29.7302V12.7617C30.5144 12.0659 29.9632 11.5016 29.2836 11.5016H12.5457ZM41.8216 30.3561C42.0843 30.9949 41.7918 31.7311 41.1676 32.0001C40.5437 32.2691 39.8246 31.9696 39.5619 31.3308L39.1424 30.3128C35.9781 37.8383 28.7276 42.7504 20.6866 42.7504C11.5296 42.7504 3.52542 36.4043 1.22886 27.3215C1.05903 26.6503 1.45284 25.9647 2.10877 25.7908C2.7647 25.6169 3.43409 26.0201 3.60392 26.6917C5.6201 34.6672 12.6373 40.2302 20.6866 40.2302C27.7147 40.2302 34.0459 35.97 36.8465 29.4271L35.9329 29.8221C35.3091 30.0911 34.59 29.7915 34.3272 29.1525C34.0645 28.5137 34.357 27.7779 34.9812 27.5085L38.6624 25.9181C39.2863 25.6487 40.0053 25.9486 40.2681 26.5873L41.8216 30.3561Z" fill="#00A3FF"/>
</g>
<defs>
<clipPath id="clip0_62_249">
<rect width="42" height="43" fill="white"/>
</clipPath>
</defs>
</svg>
