<svg width="43" height="44" viewBox="0 0 43 44" fill="none" xmlns="http://www.w3.org/2000/svg">
<g id="delivery-truck 2">
<g id="Group">
<g id="Group_2">
<path id="Vector" d="M42.867 23.8397L38.819 15.5555C38.6057 15.1187 38.1695 14.8429 37.6923 14.8429H28.1573V11.9897C28.1573 11.2778 27.5932 10.7007 26.8975 10.7007H19.9822C19.3607 5.64745 15.1347 1.72595 10.0306 1.72595C4.49971 1.72595 0 6.33023 0 11.9897V36.8428C0 37.5547 0.564039 38.1318 1.25977 38.1318H6.89906C7.46621 40.5062 9.56187 42.274 12.0545 42.274C14.5473 42.274 16.643 40.5062 17.2102 38.1318H25.79C26.3572 40.5062 28.4528 42.274 30.9455 42.274C33.4381 42.274 35.5338 40.5062 36.1009 38.1318H41.7402C42.436 38.1318 43 37.5547 43 36.8428V24.4162C43 24.2161 42.9545 24.0187 42.867 23.8397ZM10.0306 4.30408C14.1721 4.30408 17.5416 7.75189 17.5416 11.9897C17.5416 16.2276 14.1722 19.6754 10.0306 19.6754C5.88898 19.6754 2.51953 16.2276 2.51953 11.9897C2.51953 7.75189 5.88898 4.30408 10.0306 4.30408ZM12.0545 39.6959C10.5171 39.6959 9.26633 38.416 9.26633 36.8428C9.26633 35.2696 10.5172 33.9897 12.0545 33.9897C13.5921 33.9897 14.8429 35.2696 14.8429 36.8428C14.8429 38.416 13.5921 39.6959 12.0545 39.6959ZM25.6377 35.5536H17.2102C16.643 33.1793 14.5473 31.4115 12.0545 31.4115C9.56187 31.4115 7.46621 33.1793 6.89906 35.5536H2.51953V18.7842C4.35862 20.9105 7.04402 22.2534 10.0306 22.2534C15.1347 22.2534 19.3607 18.332 19.9822 13.2787H25.6377V35.5536ZM28.1573 17.421H36.9137L39.7019 23.1271H28.1573V17.421ZM30.9455 39.6959C29.4081 39.6959 28.1573 38.416 28.1573 36.8428C28.1573 35.2696 29.4081 33.9897 30.9455 33.9897C32.4829 33.9897 33.7337 35.2696 33.7337 36.8428C33.7337 38.416 32.4828 39.6959 30.9455 39.6959ZM40.4805 35.5538H36.1009V35.5537C35.5338 33.1793 33.4381 31.4116 30.9455 31.4116C29.9232 31.4116 28.9681 31.7096 28.1573 32.224V25.7054H40.4805V35.5538Z" fill="#00A3FF"/>
</g>
</g>
<g id="Group_3">
<g id="Group_4">
<path id="Vector_2" d="M12.9543 10.7008H11.2903V8.99817C11.2903 8.28626 10.7262 7.70911 10.0305 7.70911C9.33479 7.70911 8.77075 8.28626 8.77075 8.99817V11.9897C8.77084 12.7017 9.33479 13.2789 10.0306 13.2789H12.9543C13.65 13.2789 14.214 12.7017 14.214 11.9898C14.214 11.2779 13.65 10.7008 12.9543 10.7008Z" fill="#00A3FF"/>
</g>
</g>
</g>
</svg>
