<svg width="57" height="57" viewBox="0 0 57 57" fill="none" xmlns="http://www.w3.org/2000/svg">
<g id="proteccion-de-la-piel 1">
<path id="Vector" d="M4.45313 27.6093C4.4531 27.6487 4.45571 27.6881 4.46092 27.7271L7.81735 52.9C7.90458 53.541 8.22075 54.1289 8.70752 54.5551C9.19428 54.9813 9.81877 55.217 10.4657 55.2187H48.0938C48.8021 55.2179 49.4813 54.9362 49.9822 54.4353C50.4831 53.9344 50.7648 53.2552 50.7656 52.5468V49.0434L54.3203 22.3834C54.3203 22.3795 54.3203 22.3757 54.3212 22.3722C54.3233 22.3542 54.3245 22.336 54.3256 22.3176C54.3263 22.3042 54.3273 22.291 54.3276 22.2776C54.3276 22.2737 54.3276 22.2699 54.3276 22.2665V18.7031C54.3276 18.4669 54.2337 18.2404 54.0667 18.0733C53.8997 17.9063 53.6732 17.8125 53.4369 17.8125H35.625C35.3888 17.8125 35.1623 17.9063 34.9952 18.0733C34.8282 18.2404 34.7344 18.4669 34.7344 18.7031V22.2656C34.7344 22.2696 34.7344 22.2734 34.7344 22.2767C34.7344 22.2901 34.7356 22.3033 34.7364 22.3167C34.7375 22.3351 34.7386 22.3533 34.7407 22.3714C34.7407 22.3751 34.7407 22.3789 34.7416 22.3825L36.3836 34.6971C34.593 34.561 34.0395 34.0764 33.8774 33.8492C33.8196 33.7675 33.781 33.6739 33.7644 33.5752C33.7479 33.4766 33.7537 33.3755 33.7815 33.2794C33.8417 33.1475 33.8671 33.0024 33.8554 32.8579C33.8437 32.7133 33.7953 32.5742 33.7147 32.4537C33.6311 32.3295 33.5174 32.2285 33.3842 32.1601C33.2511 32.0917 33.1028 32.0581 32.9531 32.0625C31.1811 32.0625 29.8153 32.4076 28.6904 32.9204L29.3828 27.7271C29.388 27.6881 29.3906 27.6487 29.3906 27.6093C29.3889 25.4753 28.7981 23.3831 27.6832 21.5634C26.5683 19.7437 24.9727 18.2672 23.0722 17.2965C23.1482 17.134 23.1732 16.9524 23.1441 16.7754L22.2535 11.4317C22.2188 11.2237 22.1115 11.0348 21.9507 10.8985C21.7898 10.7623 21.5858 10.6875 21.375 10.6875H20.4844V7.12497H26.7188C26.955 7.12497 27.1815 7.03113 27.3485 6.86411C27.5155 6.69709 27.6094 6.47055 27.6094 6.23434V2.67184C27.6094 2.5499 27.5843 2.42925 27.5358 2.31738C27.4872 2.20551 27.4163 2.1048 27.3272 2.02149C27.2382 1.93818 27.1329 1.87405 27.0181 1.83306C26.9032 1.79208 26.7812 1.77511 26.6595 1.78322L13.3001 2.67385C13.1237 2.68561 12.9548 2.74961 12.8149 2.8577C12.675 2.9658 12.5704 3.11308 12.5145 3.28081L11.6239 5.95268C11.5793 6.08656 11.5671 6.22913 11.5884 6.36863C11.6096 6.50814 11.6638 6.64059 11.7463 6.75507C11.8288 6.86956 11.9373 6.9628 12.0629 7.02711C12.1885 7.09142 12.3276 7.12496 12.4688 7.12497H13.3594V10.6875H12.4688C12.2579 10.6875 12.0539 10.7623 11.8931 10.8985C11.7322 11.0348 11.6249 11.2237 11.5903 11.4317L10.6996 16.7754C10.6705 16.9524 10.6956 17.134 10.7716 17.2965C8.87104 18.2672 7.27541 19.7437 6.16053 21.5634C5.04566 23.3831 4.45481 25.4753 4.45313 27.6093ZM40.9688 53.4375H19.4787C19.2731 53.4373 19.0759 53.3555 18.9305 53.2101C18.7851 53.0647 18.7033 52.8675 18.7031 52.6618V43.5256C18.7033 43.32 18.7851 43.1228 18.9305 42.9774C19.0759 42.832 19.2731 42.7502 19.4787 42.75H41.0838C41.2894 42.7502 41.4866 42.832 41.632 42.9774C41.7774 43.1228 41.8592 43.32 41.8594 43.5256V52.6618C41.8592 52.8675 41.7774 53.0647 41.632 53.2101C41.4866 53.3555 41.2894 53.4373 41.0838 53.4375H40.9688ZM21.375 39.1875H39.1875V40.9687H21.375V39.1875ZM48.9844 52.5468C48.9841 52.783 48.8902 53.0094 48.7232 53.1763C48.5563 53.3433 48.3299 53.4372 48.0938 53.4375H43.5201C43.6 53.1867 43.6407 52.9251 43.6406 52.6618V49.875H48.9844V52.5468ZM49.0957 48.0937H43.6406V43.5256C43.6399 42.8477 43.3702 42.1978 42.8909 41.7185C42.4116 41.2391 41.7616 40.9695 41.0838 40.9687H40.9688V38.2968C40.9688 38.2719 40.9671 38.2474 40.9651 38.2229C40.9651 38.2195 40.9642 38.2131 40.9636 38.2076V38.2046C40.8966 37.6208 40.7201 37.055 40.4434 36.5366C40.2202 36.1011 39.9028 35.7208 39.5141 35.4233C39.1255 35.1259 38.6754 34.9188 38.1967 34.8172L36.6422 23.1562H52.4203L49.0957 48.0937ZM36.5156 19.5937H52.5469V21.375H36.5156V19.5937ZM32.3874 34.826C33.1405 35.9472 34.829 36.5156 37.4063 36.5156C38.0742 36.5156 38.5343 36.7793 38.8557 37.3458C38.8669 37.3659 38.878 37.3861 38.8883 37.4062H25.4965C25.8766 37.115 26.2385 36.8092 26.5973 36.5056C28.0475 35.2784 29.4257 34.112 32.0085 33.8839C32.0658 34.2214 32.195 34.5427 32.3874 34.826ZM14.0152 4.41135L25.8281 3.62381V5.34372H13.7045L14.0152 4.41135ZM15.1406 7.12497H18.7031V10.6875H15.1406V7.12497ZM12.6295 16.0312L13.2232 12.4687H20.6205L21.2142 16.0312H12.6295ZM16.0313 17.8125H17.8125C20.3999 17.8153 22.8814 18.8405 24.7163 20.6646C26.5513 22.4888 27.5912 24.9641 27.6094 27.5515L26.7361 34.0998C26.2778 34.4428 25.8555 34.7996 25.4466 35.1456C24.0135 36.3587 22.7754 37.4062 20.4844 37.4062C20.2482 37.4062 20.0216 37.5001 19.8546 37.6671C19.6876 37.8341 19.5938 38.0606 19.5938 38.2968V40.9687H19.4787C18.8009 40.9695 18.151 41.2391 17.6716 41.7185C17.1923 42.1978 16.9226 42.8477 16.9219 43.5256V52.6618C16.9218 52.9251 16.9625 53.1867 17.0424 53.4375H10.4657C10.2501 53.4369 10.0419 53.3583 9.87966 53.2162C9.7174 53.0742 9.612 52.8782 9.5829 52.6645L6.23438 27.5515C6.25258 24.9641 7.29243 22.4888 9.12741 20.6646C10.9624 18.8405 13.4438 17.8153 16.0313 17.8125Z" fill="#00A3FF"/>
<path id="Vector_2" d="M30.2813 44.5312C29.5767 44.5312 28.8879 44.7402 28.302 45.1316C27.7162 45.5231 27.2596 46.0795 26.9899 46.7304C26.7203 47.3814 26.6497 48.0977 26.7872 48.7888C26.9247 49.4798 27.264 50.1146 27.7622 50.6128C28.2604 51.1111 28.8952 51.4503 29.5862 51.5878C30.2773 51.7253 30.9936 51.6547 31.6446 51.3851C32.2955 51.1154 32.8519 50.6588 33.2434 50.073C33.6348 49.4871 33.8438 48.7984 33.8438 48.0938C33.8427 47.1492 33.467 46.2437 32.7992 45.5759C32.1313 44.908 31.2258 44.5323 30.2813 44.5312ZM30.2813 49.875C29.929 49.875 29.5846 49.7705 29.2916 49.5748C28.9987 49.3791 28.7704 49.1009 28.6356 48.7754C28.5008 48.4499 28.4655 48.0918 28.5342 47.7462C28.603 47.4007 28.7726 47.0833 29.0217 46.8342C29.2708 46.5851 29.5882 46.4155 29.9338 46.3467C30.2793 46.278 30.6374 46.3133 30.9629 46.4481C31.2884 46.5829 31.5666 46.8112 31.7623 47.1041C31.958 47.3971 32.0625 47.7415 32.0625 48.0938C32.062 48.566 31.8741 49.0187 31.5402 49.3527C31.2062 49.6866 30.7535 49.8744 30.2813 49.875Z" fill="#00A3FF"/>
<path id="Vector_3" d="M44.5312 32.0625C47.0695 32.0625 48.9844 30.9139 48.9844 29.3906C48.9844 27.8673 47.0695 26.7188 44.5312 26.7188C41.993 26.7188 40.0781 27.8673 40.0781 29.3906C40.0781 30.9139 41.993 32.0625 44.5312 32.0625ZM44.5312 28.5C46.2555 28.5 47.2031 29.169 47.2031 29.3906C47.2031 29.6123 46.2555 30.2812 44.5312 30.2812C42.807 30.2812 41.8594 29.6123 41.8594 29.3906C41.8594 29.169 42.807 28.5 44.5312 28.5Z" fill="#00A3FF"/>
<path id="Vector_4" d="M11.5781 31.1719H22.2656C22.5018 31.1719 22.7284 31.078 22.8954 30.911C23.0624 30.744 23.1562 30.5175 23.1562 30.2812V24.9375C23.1562 24.7013 23.0624 24.4748 22.8954 24.3077C22.7284 24.1407 22.5018 24.0469 22.2656 24.0469H11.5781C11.3419 24.0469 11.1154 24.1407 10.9484 24.3077C10.7813 24.4748 10.6875 24.7013 10.6875 24.9375V30.2812C10.6875 30.5175 10.7813 30.744 10.9484 30.911C11.1154 31.078 11.3419 31.1719 11.5781 31.1719ZM12.4688 25.8281H21.375V29.3906H12.4688V25.8281Z" fill="#00A3FF"/>
</g>
</svg>
